<svg t="1725068777263" class="icon" viewBox="0 0 1049 1024" version="1.1" xmlns="http://www.w3.org/2000/svg" p-id="989" width="200" height="200"><path d="M517.1968 137.9072c-20.6848 0-34.4576-13.824-34.4576-34.4832V34.4832c0-20.6848 13.7728-34.4832 34.4576-34.4832 17.2544 0 34.4832 13.7984 34.4832 34.4832V103.424c0 20.6848-13.7984 34.4832-34.4832 34.4832zM517.1968 1024c-20.6848 0-34.4576-13.7984-34.4576-34.4832V920.576c0-20.6848 13.7728-34.4576 34.4576-34.4576 17.2544 0 34.4832 13.7728 34.4832 34.4576v68.9408c0 20.6848-13.7984 34.4832-34.4832 34.4832zM891.3152 512c0-20.6848 13.7728-34.4832 34.4576-34.4832h68.9664c20.6592 0 34.4576 13.7984 34.4576 34.4832 0 17.2288-13.7984 34.4832-34.4832 34.4832h-68.9408c-20.6848 0-34.4576-13.7984-34.4576-34.4832zM5.1968 512c0-20.6848 13.7984-34.4832 34.4832-34.4832h68.9408c20.6848 0 34.4832 13.7984 34.4832 34.4832 0 17.2288-13.7984 34.4832-34.4832 34.4832H39.68C18.9952 546.4832 5.1968 532.6848 5.1968 512zM794.88 234.2912c-14.592-14.592-14.592-34.1248 0-48.7424l48.768-48.7424c14.6176-14.6432 34.1248-14.6432 48.7424 0 12.2112 12.1856 14.6432 34.1248 0 48.7424l-48.7424 48.7424c-14.6176 14.6432-34.1248 14.6432-48.7424 0zM142.0032 887.1936c-14.6176-14.6176-14.6176-34.1248 0-48.7424l48.7424-48.768c14.6432-14.592 34.1248-14.592 48.768 0 12.1856 12.1856 14.6176 34.1504 0 48.768L190.72 887.1936c-14.6176 14.6432-34.1248 14.6432-48.7424 0zM794.88 789.6832c14.6432-14.592 34.1504-14.592 48.768 0l48.7424 48.768c14.6432 14.6176 14.6432 34.1248 0 48.7424-12.1856 12.1856-34.1248 14.6432-48.7424 0l-48.7424-48.7424c-14.6432-14.6432-14.6432-34.1248 0-48.768zM142.0032 136.8064c14.6176-14.6432 34.1248-14.6432 48.7424 0l48.768 48.7424c14.6176 14.6176 14.6176 34.1248 0 48.7424-12.1856 12.2112-34.1248 14.6432-48.768 0L142.0032 185.5488c-14.6176-14.6176-14.6176-34.1248 0-48.7424zM198.7072 643.9168a346.9824 346.9824 0 0 0 186.5728 186.5728 346.9824 346.9824 0 0 0 263.8336 0 346.9824 346.9824 0 0 0 186.5728-186.5728 346.9824 346.9824 0 0 0 0-263.8336 346.9824 346.9824 0 0 0-186.5472-186.5728 346.9824 346.9824 0 0 0-263.8592 0 346.9824 346.9824 0 0 0-186.5728 186.5728 346.9824 346.9824 0 0 0 0 263.8336z" fill="#FAD105" p-id="990"></path></svg>